<svg width="18" height="9" viewBox="0 0 18 9" fill="none" xmlns="http://www.w3.org/2000/svg">
<path d="M17.3571 4.54129C17.3571 4.45089 17.317 4.37054 17.2567 4.31027L13.3996 0.794642C13.2991 0.714285 13.1685 0.694196 13.048 0.744419C12.9275 0.794642 12.8571 0.905133 12.8571 1.03571V3.28571H0.321429C0.140625 3.28571 0 3.42634 0 3.60714V5.53571C0 5.71652 0.140625 5.85714 0.321429 5.85714H12.8571V8.10714C12.8571 8.23772 12.9375 8.34821 13.048 8.39844C13.1685 8.44866 13.2991 8.42857 13.3996 8.33817L17.2567 4.78237C17.317 4.7221 17.3571 4.6317 17.3571 4.54129Z" fill="white"/>
</svg>
