<svg width="16" height="14" viewBox="0 0 16 14" fill="none" xmlns="http://www.w3.org/2000/svg">
<path d="M14.8571 11.7143C14.8571 11.8661 14.7232 12 14.5714 12H1.42857C1.27679 12 1.14286 11.8661 1.14286 11.7143V4.85714C1.33036 5.07143 1.53571 5.26786 1.75893 5.44643C3.03571 6.42857 4.32143 7.42857 5.5625 8.46429C6.23214 9.02679 7.0625 9.71429 7.99107 9.71429H8H8.00893C8.9375 9.71429 9.76786 9.02679 10.4375 8.46429C11.6786 7.42857 12.9643 6.42857 14.2411 5.44643C14.4643 5.26786 14.6696 5.07143 14.8571 4.85714V11.7143ZM14.8571 2.33036C14.8571 3.08928 14.125 4.08036 13.5446 4.53571C12.3482 5.47321 11.1518 6.41964 9.96429 7.36607C9.49107 7.75 8.63393 8.57143 8.00893 8.57143H8H7.99107C7.36607 8.57143 6.50893 7.75 6.03571 7.36607C4.84821 6.41964 3.65179 5.47321 2.45536 4.53571C1.65179 3.90178 1.14286 3.01786 1.14286 2C1.14286 1.84821 1.27679 1.71428 1.42857 1.71428H14.5714C14.9107 1.71428 14.8571 2.10714 14.8571 2.33036ZM16 2C16 1.21428 15.3571 0.571428 14.5714 0.571428H1.42857C0.642857 0.571428 0 1.21428 0 2V11.7143C0 12.5 0.642857 13.1429 1.42857 13.1429H14.5714C15.3571 13.1429 16 12.5 16 11.7143V2Z" fill="#7567F8"/>
</svg>
