<svg width="15" height="13" viewBox="0 0 15 13" fill="none" xmlns="http://www.w3.org/2000/svg">
<path d="M6.85714 7.85714C6.85714 6.91071 6.08929 6.14286 5.14286 6.14286H3.14286C2.66964 6.14286 2.28571 5.75893 2.28571 5.28571V5C2.28571 3.74107 3.3125 2.71428 4.57143 2.71428H5.14286C5.45536 2.71428 5.71429 2.45536 5.71429 2.14286V0.999999C5.71429 0.687499 5.45536 0.428571 5.14286 0.428571H4.57143C2.05357 0.428571 0 2.48214 0 5V11.2857C0 12.2321 0.767857 13 1.71429 13H5.14286C6.08929 13 6.85714 12.2321 6.85714 11.2857V7.85714ZM14.8571 7.85714C14.8571 6.91071 14.0893 6.14286 13.1429 6.14286H11.1429C10.6696 6.14286 10.2857 5.75893 10.2857 5.28571V5C10.2857 3.74107 11.3125 2.71428 12.5714 2.71428H13.1429C13.4554 2.71428 13.7143 2.45536 13.7143 2.14286V0.999999C13.7143 0.687499 13.4554 0.428571 13.1429 0.428571H12.5714C10.0536 0.428571 8 2.48214 8 5V11.2857C8 12.2321 8.76786 13 9.71429 13H13.1429C14.0893 13 14.8571 12.2321 14.8571 11.2857V7.85714Z" fill="#7567F8"/>
</svg>
