<svg width="73" height="14" viewBox="0 0 73 14" fill="none" xmlns="http://www.w3.org/2000/svg">
<path d="M6.57617 1.08203L4.92578 4.45898L1.19336 4.99219C0.533203 5.09375 0.279297 5.90625 0.761719 6.38867L3.42773 9.00391L2.79297 12.6855C2.69141 13.3457 3.40234 13.8535 3.98633 13.5488L7.3125 11.7969L10.6133 13.5488C11.1973 13.8535 11.9082 13.3457 11.8066 12.6855L11.1719 9.00391L13.8379 6.38867C14.3203 5.90625 14.0664 5.09375 13.4062 4.99219L9.69922 4.45898L8.02344 1.08203C7.74414 0.498047 6.88086 0.472656 6.57617 1.08203ZM21.2012 1.08203L19.5508 4.45898L15.8184 4.99219C15.1582 5.09375 14.9043 5.90625 15.3867 6.38867L18.0527 9.00391L17.418 12.6855C17.3164 13.3457 18.0273 13.8535 18.6113 13.5488L21.9375 11.7969L25.2383 13.5488C25.8223 13.8535 26.5332 13.3457 26.4316 12.6855L25.7969 9.00391L28.4629 6.38867C28.9453 5.90625 28.6914 5.09375 28.0312 4.99219L24.3242 4.45898L22.6484 1.08203C22.3691 0.498047 21.5059 0.472656 21.2012 1.08203ZM35.8262 1.08203L34.1758 4.45898L30.4434 4.99219C29.7832 5.09375 29.5293 5.90625 30.0117 6.38867L32.6777 9.00391L32.043 12.6855C31.9414 13.3457 32.6523 13.8535 33.2363 13.5488L36.5625 11.7969L39.8633 13.5488C40.4473 13.8535 41.1582 13.3457 41.0566 12.6855L40.4219 9.00391L43.0879 6.38867C43.5703 5.90625 43.3164 5.09375 42.6562 4.99219L38.9492 4.45898L37.2734 1.08203C36.9941 0.498047 36.1309 0.472656 35.8262 1.08203ZM50.4512 1.08203L48.8008 4.45898L45.0684 4.99219C44.4082 5.09375 44.1543 5.90625 44.6367 6.38867L47.3027 9.00391L46.668 12.6855C46.5664 13.3457 47.2773 13.8535 47.8613 13.5488L51.1875 11.7969L54.4883 13.5488C55.0723 13.8535 55.7832 13.3457 55.6816 12.6855L55.0469 9.00391L57.7129 6.38867C58.1953 5.90625 57.9414 5.09375 57.2812 4.99219L53.5742 4.45898L51.8984 1.08203C51.6191 0.498047 50.7559 0.472656 50.4512 1.08203ZM65.0762 1.08203L63.4258 4.45898L59.6934 4.99219C59.0332 5.09375 58.7793 5.90625 59.2617 6.38867L61.9277 9.00391L61.293 12.6855C61.1914 13.3457 61.9023 13.8535 62.4863 13.5488L65.8125 11.7969L69.1133 13.5488C69.6973 13.8535 70.4082 13.3457 70.3066 12.6855L69.6719 9.00391L72.3379 6.38867C72.8203 5.90625 72.5664 5.09375 71.9062 4.99219L68.1992 4.45898L66.5234 1.08203C66.2441 0.498047 65.3809 0.472656 65.0762 1.08203Z" fill="#D7DB17"/>
</svg>
